<?xml version="1.0" standalone="no"?>
<!DOCTYPE svg PUBLIC "-//W3C//DTD SVG 20010904//EN"
    "http://www.w3.org/TR/2001/REC-SVG-20010904/DTD/svg10.dtd">
<svg version="1.0" xmlns="http://www.w3.org/2000/svg"
     width="426.000000pt" height="600.000000pt" viewBox="0 0 426.000000 600.000000"
     preserveAspectRatio="xMidYMid meet">

    <g transform="translate(0.000000,600.000000) scale(0.100000,-0.100000)"
       fill="#000000" stroke="none">
        <path d="M2155 5809 l-450 -188 -367 -1003 c-203 -552 -368 -1006 -368 -1010
0 -5 455 -8 1010 -8 556 0 1010 2 1010 5 0 3 -151 417 -335 920 -184 503 -335
919 -335 924 0 5 66 129 146 276 80 147 144 268 142 269 -2 1 -205 -82 -453
-185z"/>
        <path d="M1084 5524 c-14 -38 -56 -85 -96 -105 l-40 -20 42 -22 c29 -14 53
-37 74 -70 l31 -50 11 29 c14 33 56 75 97 96 l28 14 -49 31 c-33 20 -55 44
-70 73 -18 37 -22 41 -28 24z"/>
        <path d="M377 5412 c-31 -88 -106 -157 -216 -197 -20 -8 -29 -14 -21 -14 8 -1
42 -14 75 -30 73 -34 138 -103 162 -173 17 -47 33 -63 33 -33 0 26 38 93 77
136 40 44 74 66 142 89 l44 16 -43 13 c-57 17 -108 50 -148 95 -35 41 -72 107
-72 131 0 30 -16 14 -33 -33z"/>
        <path d="M3616 5008 c-39 -140 -135 -283 -255 -378 -76 -61 -139 -94 -246
-131 -44 -15 -73 -29 -65 -32 233 -77 340 -158 425 -319 68 -128 75 -181 75
-534 l0 -313 -108 -89 c-158 -130 -133 -125 -244 -48 l-96 66 -219 0 -219 0
-339 -935 c-187 -514 -343 -935 -346 -935 -3 0 -115 298 -249 663 -133 364
-288 785 -343 935 l-100 272 -217 0 -217 0 -104 -76 c-57 -42 -106 -77 -108
-79 -9 -10 -628 -1711 -624 -1717 2 -5 182 -8 399 -8 250 0 394 -4 394 -10 0
-5 -7 -28 -16 -50 l-16 -40 -244 0 -244 0 0 -63 c0 -75 23 -123 71 -152 29
-17 56 -21 182 -23 133 -4 148 -6 142 -20 -30 -77 -355 -976 -355 -983 0 -5
732 -9 1700 -9 l1700 0 2 1993 3 1992 27 73 c68 186 209 325 388 383 36 11 72
23 80 26 8 3 -16 15 -55 27 -244 77 -431 258 -505 491 -12 39 -26 74 -30 78
-3 4 -14 -21 -24 -55z m-65 -2770 c2 -7 2 -466 -1 -1019 l-5 -1006 -319 881
c-176 484 -315 881 -310 883 5 2 146 64 314 138 168 73 308 134 311 134 4 1 8
-5 10 -11z"/>
        <path d="M685 4711 c-11 -52 -70 -117 -134 -149 l-59 -29 48 -23 c62 -29 113
-81 141 -144 l21 -49 13 35 c25 73 75 126 155 162 30 14 47 25 37 25 -58 2
-154 84 -184 157 -21 52 -29 55 -38 15z"/>
        <path d="M3840 3135 l0 -315 55 0 c72 0 130 24 155 65 18 30 20 49 20 253 l0
221 -31 35 c-34 39 -79 56 -151 56 l-48 0 0 -315z"/>
        <path d="M1845 3289 c-34 -9 -61 -32 -100 -83 -39 -51 -79 -66 -177 -66 l-83
-1 105 -55 c149 -78 160 -79 286 -14 l103 53 99 -52 c57 -29 114 -51 131 -51
18 0 78 24 144 57 l112 58 -90 6 c-49 3 -97 9 -106 13 -8 4 -39 33 -67 66 -72
81 -114 92 -203 50 -22 -10 -31 -9 -50 3 -34 21 -69 26 -104 16z"/>
    </g>
</svg>
